<?xml version="1.0" encoding="UTF-8"?>
<svg id="Capa_1" data-name="Capa 1" xmlns="http://www.w3.org/2000/svg" viewBox="0 0 410.98 185.99">
  <rect width="410.98" height="185.99" fill="#ed1b24"/>
  <polygon points="354.9 26.4 377.9 26.4 377.9 135.4 397.4 135.4 397.4 162.9 354.9 162.9 354.9 26.4" fill="#fff"/>
  <g>
    <circle cx="390.65" cy="33.65" r="8.75" fill="none" stroke="#fff" stroke-width="1.67"/>
    <path d="M387.23,38.16v-9.18h4.07c.82,0,1.44,.08,1.87,.25,.42,.17,.76,.46,1.02,.87,.25,.42,.38,.88,.38,1.39,0,.65-.21,1.2-.63,1.65-.42,.45-1.07,.73-1.95,.85,.32,.15,.57,.31,.73,.46,.35,.33,.69,.73,1.01,1.22l1.59,2.5h-1.52l-1.21-1.91c-.36-.55-.65-.97-.88-1.26-.23-.29-.43-.5-.62-.61-.18-.12-.37-.2-.55-.25-.14-.03-.36-.04-.68-.04h-1.41v4.08h-1.22Zm1.22-5.13h2.61c.55,0,.99-.06,1.3-.17,.31-.11,.55-.3,.71-.55,.16-.25,.24-.53,.24-.82,0-.43-.16-.79-.47-1.07-.32-.28-.81-.42-1.49-.42h-2.9v3.03Z" fill="#fff"/>
  </g>
  <path d="M16.9,162.4V26.4h31l11,57,12.5-57h30v122.5L120.9,26.4h30.5l19,122.5V26.9h40.5s14,2.5,21,22l-3-22.5h24.5l11.5,70.5,12-70h69v25.5h-20.5v28h19.5v28.5h-19v26h20v27.5h-44.5V31.4l-23,131h-27.5l-14.5-87s-2.5,24-16,35l17.5,52h-24l-17-45.5v45.5h-48.5l-2.5-13h-18.5l-4,13h-46v-50l-12,50h-12.5l-11-49.5v49l-25,.5Zm126.5-39.5l-7-41.5-6,41.5h13Zm53-31.5c16.5-1,15-21.5,15-21.5-2.5-20-15-19-15-19v40.5Z" fill="#fff"/>
</svg>